<?xml version="1.0" encoding="UTF-8" standalone="no"?>
<!-- Created with Inkscape (http://www.inkscape.org/) -->

<svg
   width="1742"
   height="1135"
   viewBox="0 0 508.793 331.50405"
   version="1.1"
   id="svg1"
   xml:space="preserve"
   sodipodi:docname="headerburger.svg"
   inkscape:export-filename="headerburger2.svg"
   inkscape:export-xdpi="87"
   inkscape:export-ydpi="87"
   inkscape:version="1.3 (0e150ed6c4, 2023-07-21)"
   xmlns:inkscape="http://www.inkscape.org/namespaces/inkscape"
   xmlns:sodipodi="http://sodipodi.sourceforge.net/DTD/sodipodi-0.dtd"
   xmlns="http://www.w3.org/2000/svg"
   xmlns:svg="http://www.w3.org/2000/svg"><sodipodi:namedview
     id="namedview1"
     pagecolor="#ffffff"
     bordercolor="#666666"
     borderopacity="1.0"
     inkscape:showpageshadow="2"
     inkscape:pageopacity="0.0"
     inkscape:pagecheckerboard="0"
     inkscape:deskcolor="#d1d1d1"
     inkscape:document-units="mm"
     inkscape:zoom="0.16566026"
     inkscape:cx="959.79568"
     inkscape:cy="-341.05947"
     inkscape:window-width="1366"
     inkscape:window-height="745"
     inkscape:window-x="-8"
     inkscape:window-y="-8"
     inkscape:window-maximized="1"
     inkscape:current-layer="layer1" /><defs
     id="defs1"><clipPath
       clipPathUnits="userSpaceOnUse"
       id="clipPath1"><path
         style="font-variation-settings:normal;opacity:1;vector-effect:none;fill:none;fill-opacity:1;stroke:#000000;stroke-width:0.264583px;stroke-linecap:butt;stroke-linejoin:miter;stroke-miterlimit:4;stroke-dasharray:none;stroke-dashoffset:0;stroke-opacity:1;stop-color:#000000;stop-opacity:1"
         d="m -355.27835,162.65755 -7.4908,-81.328774 42.80464,-89.8896997 68.48738,-28.8931173 93.10004,-9.63104 33.17358,3.210346 22.47243,20.332195 -3.21035,83.469006 14.981617,63.136814 3.210346,35.31381 -65.277043,52.43565 h -93.6351 L -351.53293,197.4363 Z"
         id="path2" /></clipPath></defs><g
     inkscape:label="Lapis 1"
     inkscape:groupmode="layer"
     id="layer1"
     transform="translate(-279.93909,133.36166)"><path
       style="font-variation-settings:normal;opacity:1;vector-effect:none;fill:#000000;fill-opacity:1;stroke:#000000;stroke-width:0.264583px;stroke-linecap:butt;stroke-linejoin:miter;stroke-miterlimit:4;stroke-dasharray:none;stroke-dashoffset:0;stroke-opacity:1;stop-color:#000000;stop-opacity:1"
       d="M 280.07136,78.586604 V -133.22937 h 508.10419 l 0.29116,201.3311 -38.40181,0.189172 1.70254,-11.350289 c 0,0 1.70254,-0.945856 0.18917,-4.161771 l 10.40443,-57.1297859 -0.18917,-2.0808863 -9.08023,0.5675145 -6.05349,-3.7834295 -4.35094,0.3783429 -1.89172,2.8375721 -0.37834,-3.0267436 -5.2968,-7.1885162 2.45923,-22.511405 -6.43183,-3.594258 -3.78343,0.378343 -5.67514,2.837572 -4.91846,28.564892 -2.08089,-7.75603 -3.40509,-3.78343 -3.59425,-0.756685 -2.41194,1.65525 -5.58056,13.1474175 -2.22277,-0.4729287 -5.48597,3.7834295 -2.69569,5.24950844 -0.75669,5.10762986 0.28376,2.6956935 0.99315,4.2563579 -8.56001,13.714932 -1.3242,0.33105 0.0473,1.797129 -3.78343,5.249509 -10.78277,-8.796474 -4.87117,-11.823217 -0.23646,-0.33105 -0.89857,0.33105 c 0,0 -0.37835,0.283757 -0.42564,2.033593 -0.0473,1.749836 2.36464,16.552504 2.36464,16.552504 l -7.56686,-4.067186 -1.9863,-0.04729 -1.18232,-1.655251 -4.25636,-0.33105 -12.20156,-3.783429 -11.30299,-0.472929 -1.84442,-3.026743 -3.16863,1.513371 0.14188,1.324201 -8.32354,-0.472929 -2.60111,1.371493 -8.70189,-34.996723 -4.35094,-3.026743 -5.2968,1.513371 7.75603,37.07761 -2.6484,2.459229 -20.43052,7.377687 -22.88975,22.322234 -11.35029,22.133063 0.18917,3.972601 z"
       id="path4" /></g></svg>
